<?xml version="1.0" encoding="UTF-8" standalone="no"?>
<!DOCTYPE svg PUBLIC "-//W3C//DTD SVG 1.1//EN"
 "http://www.w3.org/Graphics/SVG/1.1/DTD/svg11.dtd">
<!-- Generated by graphviz version 2.26.3 (20100126.1600)
 -->
<!-- Title: controllers_diagram Pages: 1 -->
<svg width="1014pt" height="799pt"
 viewBox="0.00 0.00 1014.00 799.38" xmlns="http://www.w3.org/2000/svg" xmlns:xlink="http://www.w3.org/1999/xlink">
<g id="graph1" class="graph" transform="scale(1 1) rotate(0) translate(4 795.376)">
<title>controllers_diagram</title>
<polygon fill="white" stroke="white" points="-4,5 -4,-795.376 1011,-795.376 1011,5 -4,5"/>
<!-- _diagram_info -->
<g id="node1" class="node"><title>_diagram_info</title>
<text text-anchor="start" x="763" y="-78.3" font-family="Times Roman,serif" font-size="13.00">Controllers diagram</text>
<text text-anchor="start" x="763" y="-61.3" font-family="Times Roman,serif" font-size="13.00">Date: Jun 20 2014 &#45; 03:45</text>
<text text-anchor="start" x="763" y="-44.3" font-family="Times Roman,serif" font-size="13.00">Migration version: 20140327021548</text>
<text text-anchor="start" x="763" y="-27.3" font-family="Times Roman,serif" font-size="13.00">Generated by RailRoady 1.1.1</text>
<text text-anchor="start" x="763" y="-10.3" font-family="Times Roman,serif" font-size="13.00">http://railroady.prestonlee.com</text>
</g>
<!-- InteractionsController -->
<g id="node2" class="node"><title>InteractionsController</title>
<polyline fill="none" stroke="black" points="13,-275.434 157,-275.434 "/>
<path fill="none" stroke="black" d="M157,-275.434C163,-275.434 169,-281.434 169,-287.434"/>
<polyline fill="none" stroke="black" points="169,-287.434 169,-419.434 "/>
<path fill="none" stroke="black" d="M169,-419.434C169,-425.434 163,-431.434 157,-431.434"/>
<polyline fill="none" stroke="black" points="157,-431.434 13,-431.434 "/>
<path fill="none" stroke="black" d="M13,-431.434C7,-431.434 1,-425.434 1,-419.434"/>
<polyline fill="none" stroke="black" points="1,-419.434 1,-287.434 "/>
<path fill="none" stroke="black" d="M1,-287.434C1,-281.434 7,-275.434 13,-275.434"/>
<text text-anchor="middle" x="85" y="-414.834" font-family="Times Roman,serif" font-size="14.00">InteractionsController</text>
<polyline fill="none" stroke="black" points="1,-405.434 169,-405.434 "/>
<text text-anchor="start" x="9" y="-388.834" font-family="Times Roman,serif" font-size="14.00">compare</text>
<text text-anchor="start" x="9" y="-370.834" font-family="Times Roman,serif" font-size="14.00">create</text>
<text text-anchor="start" x="9" y="-352.834" font-family="Times Roman,serif" font-size="14.00">index</text>
<text text-anchor="start" x="9" y="-334.834" font-family="Times Roman,serif" font-size="14.00">show</text>
<polyline fill="none" stroke="black" points="1,-325.434 169,-325.434 "/>
<polyline fill="none" stroke="black" points="1,-301.434 169,-301.434 "/>
<text text-anchor="start" x="9" y="-284.834" font-family="Times Roman,serif" font-size="14.00">_layout</text>
</g>
<!-- SessionsController -->
<g id="node3" class="node"><title>SessionsController</title>
<polyline fill="none" stroke="black" points="525.46,-383.626 645.46,-383.626 "/>
<path fill="none" stroke="black" d="M645.46,-383.626C651.46,-383.626 657.46,-389.626 657.46,-395.626"/>
<polyline fill="none" stroke="black" points="657.46,-395.626 657.46,-509.626 "/>
<path fill="none" stroke="black" d="M657.46,-509.626C657.46,-515.626 651.46,-521.626 645.46,-521.626"/>
<polyline fill="none" stroke="black" points="645.46,-521.626 525.46,-521.626 "/>
<path fill="none" stroke="black" d="M525.46,-521.626C519.46,-521.626 513.46,-515.626 513.46,-509.626"/>
<polyline fill="none" stroke="black" points="513.46,-509.626 513.46,-395.626 "/>
<path fill="none" stroke="black" d="M513.46,-395.626C513.46,-389.626 519.46,-383.626 525.46,-383.626"/>
<text text-anchor="middle" x="585.46" y="-505.026" font-family="Times Roman,serif" font-size="14.00">SessionsController</text>
<polyline fill="none" stroke="black" points="513.46,-495.626 657.46,-495.626 "/>
<text text-anchor="start" x="521.46" y="-479.026" font-family="Times Roman,serif" font-size="14.00">create</text>
<text text-anchor="start" x="521.46" y="-461.026" font-family="Times Roman,serif" font-size="14.00">destroy</text>
<text text-anchor="start" x="521.46" y="-443.026" font-family="Times Roman,serif" font-size="14.00">new</text>
<polyline fill="none" stroke="black" points="513.46,-433.626 657.46,-433.626 "/>
<polyline fill="none" stroke="black" points="513.46,-409.626 657.46,-409.626 "/>
<text text-anchor="start" x="521.46" y="-393.026" font-family="Times Roman,serif" font-size="14.00">_layout</text>
</g>
<!-- RulesController -->
<g id="node4" class="node"><title>RulesController</title>
<polyline fill="none" stroke="black" points="28.1385,-1.5 146.138,-1.5 "/>
<path fill="none" stroke="black" d="M146.138,-1.5C152.138,-1.5 158.138,-7.5 158.138,-13.5"/>
<polyline fill="none" stroke="black" points="158.138,-13.5 158.138,-145.5 "/>
<path fill="none" stroke="black" d="M158.138,-145.5C158.138,-151.5 152.138,-157.5 146.138,-157.5"/>
<polyline fill="none" stroke="black" points="146.138,-157.5 28.1385,-157.5 "/>
<path fill="none" stroke="black" d="M28.1385,-157.5C22.1385,-157.5 16.1385,-151.5 16.1385,-145.5"/>
<polyline fill="none" stroke="black" points="16.1385,-145.5 16.1385,-13.5 "/>
<path fill="none" stroke="black" d="M16.1385,-13.5C16.1385,-7.5 22.1385,-1.5 28.1385,-1.5"/>
<text text-anchor="middle" x="87.1385" y="-140.9" font-family="Times Roman,serif" font-size="14.00">RulesController</text>
<polyline fill="none" stroke="black" points="16.1385,-131.5 158.138,-131.5 "/>
<text text-anchor="start" x="24.1385" y="-114.9" font-family="Times Roman,serif" font-size="14.00">create</text>
<text text-anchor="start" x="24.1385" y="-96.9" font-family="Times Roman,serif" font-size="14.00">get_rules_by_user</text>
<text text-anchor="start" x="24.1385" y="-78.9" font-family="Times Roman,serif" font-size="14.00">index</text>
<text text-anchor="start" x="24.1385" y="-60.9" font-family="Times Roman,serif" font-size="14.00">new</text>
<polyline fill="none" stroke="black" points="16.1385,-51.5 158.138,-51.5 "/>
<polyline fill="none" stroke="black" points="16.1385,-27.5 158.138,-27.5 "/>
<text text-anchor="start" x="24.1385" y="-10.9" font-family="Times Roman,serif" font-size="14.00">_layout</text>
</g>
<!-- UsersController -->
<g id="node5" class="node"><title>UsersController</title>
<polyline fill="none" stroke="black" points="280.732,-569.925 382.732,-569.925 "/>
<path fill="none" stroke="black" d="M382.732,-569.925C388.732,-569.925 394.732,-575.925 394.732,-581.925"/>
<polyline fill="none" stroke="black" points="394.732,-581.925 394.732,-695.925 "/>
<path fill="none" stroke="black" d="M394.732,-695.925C394.732,-701.925 388.732,-707.925 382.732,-707.925"/>
<polyline fill="none" stroke="black" points="382.732,-707.925 280.732,-707.925 "/>
<path fill="none" stroke="black" d="M280.732,-707.925C274.732,-707.925 268.732,-701.925 268.732,-695.925"/>
<polyline fill="none" stroke="black" points="268.732,-695.925 268.732,-581.925 "/>
<path fill="none" stroke="black" d="M268.732,-581.925C268.732,-575.925 274.732,-569.925 280.732,-569.925"/>
<text text-anchor="middle" x="331.732" y="-691.325" font-family="Times Roman,serif" font-size="14.00">UsersController</text>
<polyline fill="none" stroke="black" points="268.732,-681.925 394.732,-681.925 "/>
<text text-anchor="start" x="276.732" y="-665.325" font-family="Times Roman,serif" font-size="14.00">for_boris</text>
<text text-anchor="start" x="276.732" y="-647.325" font-family="Times Roman,serif" font-size="14.00">index</text>
<text text-anchor="start" x="276.732" y="-629.325" font-family="Times Roman,serif" font-size="14.00">request_user_id</text>
<polyline fill="none" stroke="black" points="268.732,-619.925 394.732,-619.925 "/>
<polyline fill="none" stroke="black" points="268.732,-595.925 394.732,-595.925 "/>
<text text-anchor="start" x="276.732" y="-579.325" font-family="Times Roman,serif" font-size="14.00">_layout</text>
</g>
<!-- AdminsController -->
<g id="node6" class="node"><title>AdminsController</title>
<polyline fill="none" stroke="black" points="532.299,-543.876 644.299,-543.876 "/>
<path fill="none" stroke="black" d="M644.299,-543.876C650.299,-543.876 656.299,-549.876 656.299,-555.876"/>
<polyline fill="none" stroke="black" points="656.299,-555.876 656.299,-777.876 "/>
<path fill="none" stroke="black" d="M656.299,-777.876C656.299,-783.876 650.299,-789.876 644.299,-789.876"/>
<polyline fill="none" stroke="black" points="644.299,-789.876 532.299,-789.876 "/>
<path fill="none" stroke="black" d="M532.299,-789.876C526.299,-789.876 520.299,-783.876 520.299,-777.876"/>
<polyline fill="none" stroke="black" points="520.299,-777.876 520.299,-555.876 "/>
<path fill="none" stroke="black" d="M520.299,-555.876C520.299,-549.876 526.299,-543.876 532.299,-543.876"/>
<text text-anchor="middle" x="588.299" y="-773.276" font-family="Times Roman,serif" font-size="14.00">AdminsController</text>
<polyline fill="none" stroke="black" points="520.299,-763.876 656.299,-763.876 "/>
<text text-anchor="start" x="528.299" y="-747.276" font-family="Times Roman,serif" font-size="14.00">create</text>
<text text-anchor="start" x="528.299" y="-729.276" font-family="Times Roman,serif" font-size="14.00">destroy</text>
<text text-anchor="start" x="528.299" y="-711.276" font-family="Times Roman,serif" font-size="14.00">edit</text>
<text text-anchor="start" x="528.299" y="-693.276" font-family="Times Roman,serif" font-size="14.00">index</text>
<text text-anchor="start" x="528.299" y="-675.276" font-family="Times Roman,serif" font-size="14.00">new</text>
<text text-anchor="start" x="528.299" y="-657.276" font-family="Times Roman,serif" font-size="14.00">show</text>
<text text-anchor="start" x="528.299" y="-639.276" font-family="Times Roman,serif" font-size="14.00">update</text>
<polyline fill="none" stroke="black" points="520.299,-629.876 656.299,-629.876 "/>
<polyline fill="none" stroke="black" points="520.299,-605.876 656.299,-605.876 "/>
<text text-anchor="start" x="528.299" y="-589.276" font-family="Times Roman,serif" font-size="14.00">_layout</text>
<text text-anchor="start" x="528.299" y="-571.276" font-family="Times Roman,serif" font-size="14.00">admin_params</text>
<text text-anchor="start" x="528.299" y="-553.276" font-family="Times Roman,serif" font-size="14.00">set_admin</text>
</g>
<!-- SchedulesController -->
<g id="node7" class="node"><title>SchedulesController</title>
<polyline fill="none" stroke="black" points="13.0336,-555.32 157.034,-555.32 "/>
<path fill="none" stroke="black" d="M157.034,-555.32C163.034,-555.32 169.034,-561.32 169.034,-567.32"/>
<polyline fill="none" stroke="black" points="169.034,-567.32 169.034,-699.32 "/>
<path fill="none" stroke="black" d="M169.034,-699.32C169.034,-705.32 163.034,-711.32 157.034,-711.32"/>
<polyline fill="none" stroke="black" points="157.034,-711.32 13.0336,-711.32 "/>
<path fill="none" stroke="black" d="M13.0336,-711.32C7.03355,-711.32 1.03355,-705.32 1.03355,-699.32"/>
<polyline fill="none" stroke="black" points="1.03355,-699.32 1.03355,-567.32 "/>
<path fill="none" stroke="black" d="M1.03355,-567.32C1.03355,-561.32 7.03355,-555.32 13.0336,-555.32"/>
<text text-anchor="middle" x="85.0336" y="-694.72" font-family="Times Roman,serif" font-size="14.00">SchedulesController</text>
<polyline fill="none" stroke="black" points="1.03355,-685.32 169.034,-685.32 "/>
<text text-anchor="start" x="9.03355" y="-668.72" font-family="Times Roman,serif" font-size="14.00">create</text>
<text text-anchor="start" x="9.03355" y="-650.72" font-family="Times Roman,serif" font-size="14.00">get_schedule_by_user</text>
<text text-anchor="start" x="9.03355" y="-632.72" font-family="Times Roman,serif" font-size="14.00">index</text>
<text text-anchor="start" x="9.03355" y="-614.72" font-family="Times Roman,serif" font-size="14.00">new</text>
<polyline fill="none" stroke="black" points="1.03355,-605.32 169.034,-605.32 "/>
<polyline fill="none" stroke="black" points="1.03355,-581.32 169.034,-581.32 "/>
<text text-anchor="start" x="9.03355" y="-564.72" font-family="Times Roman,serif" font-size="14.00">_layout</text>
</g>
<!-- ApplicationController -->
<g id="node8" class="node"><title>ApplicationController</title>
<polyline fill="none" stroke="black" points="260.489,-317.147 397.489,-317.147 "/>
<path fill="none" stroke="black" d="M397.489,-317.147C403.489,-317.147 409.489,-323.147 409.489,-329.147"/>
<polyline fill="none" stroke="black" points="409.489,-329.147 409.489,-407.147 "/>
<path fill="none" stroke="black" d="M409.489,-407.147C409.489,-413.147 403.489,-419.147 397.489,-419.147"/>
<polyline fill="none" stroke="black" points="397.489,-419.147 260.489,-419.147 "/>
<path fill="none" stroke="black" d="M260.489,-419.147C254.489,-419.147 248.489,-413.147 248.489,-407.147"/>
<polyline fill="none" stroke="black" points="248.489,-407.147 248.489,-329.147 "/>
<path fill="none" stroke="black" d="M248.489,-329.147C248.489,-323.147 254.489,-317.147 260.489,-317.147"/>
<text text-anchor="middle" x="328.989" y="-402.547" font-family="Times Roman,serif" font-size="14.00">ApplicationController</text>
<polyline fill="none" stroke="black" points="248.489,-393.147 409.489,-393.147 "/>
<polyline fill="none" stroke="black" points="248.489,-369.147 409.489,-369.147 "/>
<text text-anchor="start" x="256.489" y="-352.547" font-family="Times Roman,serif" font-size="14.00">authorize</text>
<polyline fill="none" stroke="black" points="248.489,-343.147 409.489,-343.147 "/>
<text text-anchor="start" x="256.489" y="-326.547" font-family="Times Roman,serif" font-size="14.00">_layout</text>
</g>
<!-- ApplicationController&#45;&gt;InteractionsController -->
<g id="edge2" class="edge"><title>ApplicationController&#45;&gt;InteractionsController</title>
<path fill="none" stroke="black" d="M248.421,-363.288C223.02,-361.757 194.899,-360.061 169.249,-358.514"/>
</g>
<!-- ApplicationController&#45;&gt;SessionsController -->
<g id="edge4" class="edge"><title>ApplicationController&#45;&gt;SessionsController</title>
<path fill="none" stroke="black" d="M409.786,-394.761C442.969,-405.691 481.086,-418.246 513.316,-428.862"/>
</g>
<!-- ApplicationController&#45;&gt;RulesController -->
<g id="edge6" class="edge"><title>ApplicationController&#45;&gt;RulesController</title>
<path fill="none" stroke="black" d="M286.029,-316.875C249.041,-272.729 195.086,-208.335 152.702,-157.75"/>
</g>
<!-- ApplicationController&#45;&gt;UsersController -->
<g id="edge8" class="edge"><title>ApplicationController&#45;&gt;UsersController</title>
<path fill="none" stroke="black" d="M329.508,-419.397C329.939,-461.944 330.556,-522.858 331.031,-569.731"/>
</g>
<!-- ApplicationController&#45;&gt;AdminsController -->
<g id="edge10" class="edge"><title>ApplicationController&#45;&gt;AdminsController</title>
<path fill="none" stroke="black" d="M373.271,-419.161C413.557,-465.571 473.638,-534.785 520.059,-588.263"/>
</g>
<!-- ApplicationController&#45;&gt;SchedulesController -->
<g id="edge12" class="edge"><title>ApplicationController&#45;&gt;SchedulesController</title>
<path fill="none" stroke="black" d="M281.952,-419.275C246.506,-457.803 197.277,-511.315 156.909,-555.194"/>
</g>
<!-- AnswersController -->
<g id="node9" class="node"><title>AnswersController</title>
<polyline fill="none" stroke="black" points="521.814,-208.931 642.814,-208.931 "/>
<path fill="none" stroke="black" d="M642.814,-208.931C648.814,-208.931 654.814,-214.931 654.814,-220.931"/>
<polyline fill="none" stroke="black" points="654.814,-220.931 654.814,-316.931 "/>
<path fill="none" stroke="black" d="M654.814,-316.931C654.814,-322.931 648.814,-328.931 642.814,-328.931"/>
<polyline fill="none" stroke="black" points="642.814,-328.931 521.814,-328.931 "/>
<path fill="none" stroke="black" d="M521.814,-328.931C515.814,-328.931 509.814,-322.931 509.814,-316.931"/>
<polyline fill="none" stroke="black" points="509.814,-316.931 509.814,-220.931 "/>
<path fill="none" stroke="black" d="M509.814,-220.931C509.814,-214.931 515.814,-208.931 521.814,-208.931"/>
<text text-anchor="middle" x="582.314" y="-312.331" font-family="Times Roman,serif" font-size="14.00">AnswersController</text>
<polyline fill="none" stroke="black" points="509.814,-302.931 654.814,-302.931 "/>
<text text-anchor="start" x="517.814" y="-286.331" font-family="Times Roman,serif" font-size="14.00">create</text>
<text text-anchor="start" x="517.814" y="-268.331" font-family="Times Roman,serif" font-size="14.00">index</text>
<polyline fill="none" stroke="black" points="509.814,-258.931 654.814,-258.931 "/>
<polyline fill="none" stroke="black" points="509.814,-234.931 654.814,-234.931 "/>
<text text-anchor="start" x="517.814" y="-218.331" font-family="Times Roman,serif" font-size="14.00">_layout</text>
</g>
<!-- ApplicationController&#45;&gt;AnswersController -->
<g id="edge14" class="edge"><title>ApplicationController&#45;&gt;AnswersController</title>
<path fill="none" stroke="black" d="M409.49,-336.618C441.653,-324.021 478.416,-309.623 509.744,-297.353"/>
</g>
<!-- QuestionsController -->
<g id="node10" class="node"><title>QuestionsController</title>
<polyline fill="none" stroke="black" points="267.342,-21.2455 398.342,-21.2455 "/>
<path fill="none" stroke="black" d="M398.342,-21.2455C404.342,-21.2455 410.342,-27.2455 410.342,-33.2455"/>
<polyline fill="none" stroke="black" points="410.342,-33.2455 410.342,-147.246 "/>
<path fill="none" stroke="black" d="M410.342,-147.246C410.342,-153.246 404.342,-159.246 398.342,-159.246"/>
<polyline fill="none" stroke="black" points="398.342,-159.246 267.342,-159.246 "/>
<path fill="none" stroke="black" d="M267.342,-159.246C261.342,-159.246 255.342,-153.246 255.342,-147.246"/>
<polyline fill="none" stroke="black" points="255.342,-147.246 255.342,-33.2455 "/>
<path fill="none" stroke="black" d="M255.342,-33.2455C255.342,-27.2455 261.342,-21.2455 267.342,-21.2455"/>
<text text-anchor="middle" x="332.842" y="-142.646" font-family="Times Roman,serif" font-size="14.00">QuestionsController</text>
<polyline fill="none" stroke="black" points="255.342,-133.246 410.342,-133.246 "/>
<text text-anchor="start" x="263.342" y="-116.646" font-family="Times Roman,serif" font-size="14.00">create</text>
<text text-anchor="start" x="263.342" y="-98.6455" font-family="Times Roman,serif" font-size="14.00">index</text>
<text text-anchor="start" x="263.342" y="-80.6455" font-family="Times Roman,serif" font-size="14.00">new</text>
<polyline fill="none" stroke="black" points="255.342,-71.2455 410.342,-71.2455 "/>
<polyline fill="none" stroke="black" points="255.342,-47.2455 410.342,-47.2455 "/>
<text text-anchor="start" x="263.342" y="-30.6455" font-family="Times Roman,serif" font-size="14.00">_layout</text>
</g>
<!-- ApplicationController&#45;&gt;QuestionsController -->
<g id="edge16" class="edge"><title>ApplicationController&#45;&gt;QuestionsController</title>
<path fill="none" stroke="black" d="M329.7,-316.852C330.314,-272.547 331.207,-208.146 331.884,-159.313"/>
</g>
<!-- PagesController -->
<g id="node11" class="node"><title>PagesController</title>
<polyline fill="none" stroke="black" points="537.266,-2.38694 638.266,-2.38694 "/>
<path fill="none" stroke="black" d="M638.266,-2.38694C644.266,-2.38694 650.266,-8.38694 650.266,-14.3869"/>
<polyline fill="none" stroke="black" points="650.266,-14.3869 650.266,-92.3869 "/>
<path fill="none" stroke="black" d="M650.266,-92.3869C650.266,-98.3869 644.266,-104.387 638.266,-104.387"/>
<polyline fill="none" stroke="black" points="638.266,-104.387 537.266,-104.387 "/>
<path fill="none" stroke="black" d="M537.266,-104.387C531.266,-104.387 525.266,-98.3869 525.266,-92.3869"/>
<polyline fill="none" stroke="black" points="525.266,-92.3869 525.266,-14.3869 "/>
<path fill="none" stroke="black" d="M525.266,-14.3869C525.266,-8.38694 531.266,-2.38694 537.266,-2.38694"/>
<text text-anchor="middle" x="587.766" y="-87.7869" font-family="Times Roman,serif" font-size="14.00">PagesController</text>
<polyline fill="none" stroke="black" points="525.266,-78.3869 650.266,-78.3869 "/>
<text text-anchor="start" x="533.266" y="-61.7869" font-family="Times Roman,serif" font-size="14.00">index</text>
<polyline fill="none" stroke="black" points="525.266,-52.3869 650.266,-52.3869 "/>
<polyline fill="none" stroke="black" points="525.266,-28.3869 650.266,-28.3869 "/>
<text text-anchor="start" x="533.266" y="-11.7869" font-family="Times Roman,serif" font-size="14.00">_layout</text>
</g>
<!-- ApplicationController&#45;&gt;PagesController -->
<g id="edge18" class="edge"><title>ApplicationController&#45;&gt;PagesController</title>
<path fill="none" stroke="black" d="M371.142,-316.875C419.263,-258.343 497.517,-163.16 545.631,-104.637"/>
</g>
</g>
</svg>
