<?xml version="1.0" encoding="UTF-8" standalone="no"?>
<!DOCTYPE svg PUBLIC "-//W3C//DTD SVG 1.1//EN"
 "http://www.w3.org/Graphics/SVG/1.1/DTD/svg11.dtd">
<!-- Generated by graphviz version 2.26.3 (20100126.1600)
 -->
<!-- Title: models_diagram Pages: 1 -->
<svg width="890pt" height="250pt"
 viewBox="0.00 0.00 889.61 250.00" xmlns="http://www.w3.org/2000/svg" xmlns:xlink="http://www.w3.org/1999/xlink">
<g id="graph1" class="graph" transform="scale(1 1) rotate(0) translate(4 246)">
<title>models_diagram</title>
<polygon fill="white" stroke="white" points="-4,5 -4,-246 886.612,-246 886.612,5 -4,5"/>
<!-- _diagram_info -->
<g id="node1" class="node"><title>_diagram_info</title>
<text text-anchor="start" x="47" y="-225.8" font-family="Times Roman,serif" font-size="13.00">Models diagram</text>
<text text-anchor="start" x="47" y="-208.8" font-family="Times Roman,serif" font-size="13.00">Date: Jun 20 2014 &#45; 03:45</text>
<text text-anchor="start" x="47" y="-191.8" font-family="Times Roman,serif" font-size="13.00">Migration version: 20140327021548</text>
<text text-anchor="start" x="47" y="-174.8" font-family="Times Roman,serif" font-size="13.00">Generated by RailRoady 1.1.1</text>
<text text-anchor="start" x="47" y="-157.8" font-family="Times Roman,serif" font-size="13.00">http://railroady.prestonlee.com</text>
</g>
<!-- Admin -->
<g id="node2" class="node"><title>Admin</title>
<ellipse fill="none" stroke="black" cx="42" cy="-93" rx="41.9273" ry="18.3848"/>
<text text-anchor="middle" x="42" y="-89.4" font-family="Times Roman,serif" font-size="14.00">Admin</text>
</g>
<!-- Rule -->
<g id="node3" class="node"><title>Rule</title>
<ellipse fill="none" stroke="black" cx="135" cy="-93" rx="33.234" ry="18.3848"/>
<text text-anchor="middle" x="135" y="-89.4" font-family="Times Roman,serif" font-size="14.00">Rule</text>
</g>
<!-- ValidUser -->
<g id="node4" class="node"><title>ValidUser</title>
<ellipse fill="none" stroke="black" cx="411" cy="-93" rx="56.7776" ry="18.3848"/>
<text text-anchor="middle" x="411" y="-89.4" font-family="Times Roman,serif" font-size="14.00">ValidUser</text>
</g>
<!-- User -->
<g id="node10" class="node"><title>User</title>
<ellipse fill="none" stroke="black" cx="650" cy="-19" rx="33.9411" ry="18.3848"/>
<text text-anchor="middle" x="650" y="-15.4" font-family="Times Roman,serif" font-size="14.00">User</text>
</g>
<!-- ValidUser&#45;&gt;User -->
<g id="edge6" class="edge"><title>ValidUser&#45;&gt;User</title>
<path fill="none" stroke="#433d27" d="M460.163,-77.7779C505.264,-63.8135 571.119,-43.4234 612.219,-30.6977"/>
<ellipse fill="none" stroke="#433d27" cx="456.179" cy="-79.0115" rx="4.00001" ry="4.00001"/>
<ellipse fill="#433d27" stroke="#433d27" cx="616.275" cy="-29.4421" rx="4.00001" ry="4.00001"/>
</g>
<!-- Choice -->
<g id="node5" class="node"><title>Choice</title>
<ellipse fill="none" stroke="black" cx="238" cy="-19" rx="43.8406" ry="18.3848"/>
<text text-anchor="middle" x="238" y="-15.4" font-family="Times Roman,serif" font-size="14.00">Choice</text>
</g>
<!-- Question -->
<g id="node6" class="node"><title>Question</title>
<ellipse fill="none" stroke="black" cx="280" cy="-93" rx="55.8614" ry="18.3848"/>
<text text-anchor="middle" x="280" y="-89.4" font-family="Times Roman,serif" font-size="14.00">Question</text>
</g>
<!-- Question&#45;&gt;Choice -->
<g id="edge12" class="edge"><title>Question&#45;&gt;Choice</title>
<path fill="none" stroke="#7eb1d0" d="M265.62,-67.6632C261.697,-60.7524 257.432,-53.2368 253.452,-46.2256"/>
<ellipse fill="none" stroke="#7eb1d0" cx="267.644" cy="-71.2291" rx="4.00002" ry="4.00002"/>
<polygon fill="#7eb1d0" stroke="#7eb1d0" points="253.199,-45.7786 252.176,-34.8605 250.731,-41.4302 248.263,-37.0817 248.263,-37.0817 248.263,-37.0817 250.731,-41.4302 244.349,-39.303 253.199,-45.7786 253.199,-45.7786"/>
</g>
<!-- Schedule -->
<g id="node7" class="node"><title>Schedule</title>
<ellipse fill="none" stroke="black" cx="542" cy="-93" rx="55.8614" ry="18.3848"/>
<text text-anchor="middle" x="542" y="-89.4" font-family="Times Roman,serif" font-size="14.00">Schedule</text>
</g>
<!-- Interaction -->
<g id="node8" class="node"><title>Interaction</title>
<ellipse fill="none" stroke="black" cx="681" cy="-93" rx="65.0538" ry="18.3848"/>
<text text-anchor="middle" x="681" y="-89.4" font-family="Times Roman,serif" font-size="14.00">Interaction</text>
</g>
<!-- Answer -->
<g id="node9" class="node"><title>Answer</title>
<ellipse fill="none" stroke="black" cx="813" cy="-93" rx="48.7904" ry="18.3848"/>
<text text-anchor="middle" x="813" y="-89.4" font-family="Times Roman,serif" font-size="14.00">Answer</text>
</g>
<!-- ActiveRecord::Base -->
<g id="node11" class="node"><title>ActiveRecord::Base</title>
<ellipse fill="none" stroke="black" cx="411" cy="-195" rx="104.151" ry="18.3848"/>
<text text-anchor="middle" x="411" y="-191.4" font-family="Times Roman,serif" font-size="14.00">ActiveRecord::Base</text>
</g>
<!-- ActiveRecord::Base&#45;&gt;Admin -->
<g id="edge2" class="edge"><title>ActiveRecord::Base&#45;&gt;Admin</title>
<path fill="none" stroke="black" d="M374.841,-177.561C353.02,-167.646 324.413,-155.71 298,-148 209.2,-122.08 182.271,-136.248 93,-112 86.4349,-110.217 79.5284,-107.934 72.992,-105.573"/>
</g>
<!-- ActiveRecord::Base&#45;&gt;Rule -->
<g id="edge4" class="edge"><title>ActiveRecord::Base&#45;&gt;Rule</title>
<path fill="none" stroke="black" d="M372.131,-177.78C350.498,-168.463 322.971,-157.046 298,-148 247.246,-129.615 232.845,-130.131 182,-112 175.368,-109.635 168.291,-106.893 161.695,-104.24"/>
</g>
<!-- ActiveRecord::Base&#45;&gt;ValidUser -->
<g id="edge8" class="edge"><title>ActiveRecord::Base&#45;&gt;ValidUser</title>
<path fill="none" stroke="black" d="M411,-176.292C411,-157.888 411,-129.953 411,-111.59"/>
</g>
<!-- ActiveRecord::Base&#45;&gt;Choice -->
<g id="edge10" class="edge"><title>ActiveRecord::Base&#45;&gt;Choice</title>
<path fill="none" stroke="black" d="M369.737,-177.856C312.581,-154.063 216.148,-113.733 215,-112 199.751,-88.9833 213.949,-56.7125 225.817,-36.867"/>
</g>
<!-- ActiveRecord::Base&#45;&gt;Question -->
<g id="edge14" class="edge"><title>ActiveRecord::Base&#45;&gt;Question</title>
<path fill="none" stroke="black" d="M387.58,-176.764C363.294,-157.855 325.623,-128.523 301.91,-110.06"/>
</g>
<!-- ActiveRecord::Base&#45;&gt;Schedule -->
<g id="edge16" class="edge"><title>ActiveRecord::Base&#45;&gt;Schedule</title>
<path fill="none" stroke="black" d="M434.42,-176.764C458.706,-157.855 496.377,-128.523 520.09,-110.06"/>
</g>
<!-- ActiveRecord::Base&#45;&gt;Interaction -->
<g id="edge18" class="edge"><title>ActiveRecord::Base&#45;&gt;Interaction</title>
<path fill="none" stroke="black" d="M455.585,-178.157C507.409,-158.579 592.132,-126.572 641.622,-107.876"/>
</g>
<!-- ActiveRecord::Base&#45;&gt;Answer -->
<g id="edge20" class="edge"><title>ActiveRecord::Base&#45;&gt;Answer</title>
<path fill="none" stroke="black" d="M477.355,-180.642C546.934,-165.202 659.258,-139.185 755,-112 762.033,-110.003 769.489,-107.702 776.628,-105.406"/>
</g>
<!-- ActiveRecord::Base&#45;&gt;User -->
<g id="edge22" class="edge"><title>ActiveRecord::Base&#45;&gt;User</title>
<path fill="none" stroke="black" d="M513.152,-191.323C634.538,-184.555 826.312,-165.473 871,-112 924.588,-47.878 758.229,-27.1331 683.926,-21.1655"/>
</g>
</g>
</svg>
