<?xml version="1.0" encoding="UTF-8" standalone="no"?>
<!DOCTYPE svg PUBLIC "-//W3C//DTD SVG 1.1//EN"
 "http://www.w3.org/Graphics/SVG/1.1/DTD/svg11.dtd">
<!-- Generated by graphviz version 2.26.3 (20100126.1600)
 -->
<!-- Title: models_diagram Pages: 1 -->
<svg width="1240pt" height="462pt"
 viewBox="0.00 0.00 1240.31 462.00" xmlns="http://www.w3.org/2000/svg" xmlns:xlink="http://www.w3.org/1999/xlink">
<g id="graph1" class="graph" transform="scale(1 1) rotate(0) translate(4 458)">
<title>models_diagram</title>
<polygon fill="white" stroke="white" points="-4,5 -4,-458 1237.31,-458 1237.31,5 -4,5"/>
<!-- _diagram_info -->
<g id="node1" class="node"><title>_diagram_info</title>
<text text-anchor="start" x="281" y="-437.8" font-family="Times Roman,serif" font-size="13.00">Models diagram</text>
<text text-anchor="start" x="281" y="-420.8" font-family="Times Roman,serif" font-size="13.00">Date: Jun 20 2014 &#45; 03:45</text>
<text text-anchor="start" x="281" y="-403.8" font-family="Times Roman,serif" font-size="13.00">Migration version: 20140327021548</text>
<text text-anchor="start" x="281" y="-386.8" font-family="Times Roman,serif" font-size="13.00">Generated by RailRoady 1.1.1</text>
<text text-anchor="start" x="281" y="-369.8" font-family="Times Roman,serif" font-size="13.00">http://railroady.prestonlee.com</text>
</g>
<!-- Admin -->
<g id="node2" class="node"><title>Admin</title>
<polyline fill="none" stroke="black" points="11.5,-190 166.5,-190 "/>
<path fill="none" stroke="black" d="M166.5,-190C172.5,-190 178.5,-196 178.5,-202"/>
<polyline fill="none" stroke="black" points="178.5,-202 178.5,-302 "/>
<path fill="none" stroke="black" d="M178.5,-302C178.5,-308 172.5,-314 166.5,-314"/>
<polyline fill="none" stroke="black" points="166.5,-314 11.5,-314 "/>
<path fill="none" stroke="black" d="M11.5,-314C5.5,-314 -0.5,-308 -0.5,-302"/>
<polyline fill="none" stroke="black" points="-0.5,-302 -0.5,-202 "/>
<path fill="none" stroke="black" d="M-0.5,-202C-0.5,-196 5.5,-190 11.5,-190"/>
<text text-anchor="middle" x="89" y="-297.4" font-family="Times Roman,serif" font-size="14.00">Admin</text>
<polyline fill="none" stroke="black" points="-0.5,-288 178.5,-288 "/>
<text text-anchor="start" x="7.5" y="-271.4" font-family="Times Roman,serif" font-size="14.00">id :integer</text>
<text text-anchor="start" x="7.5" y="-253.4" font-family="Times Roman,serif" font-size="14.00">name :string</text>
<text text-anchor="start" x="7.5" y="-235.4" font-family="Times Roman,serif" font-size="14.00">password_digest :string</text>
<text text-anchor="start" x="7.5" y="-217.4" font-family="Times Roman,serif" font-size="14.00">created_at :datetime</text>
<text text-anchor="start" x="7.5" y="-199.4" font-family="Times Roman,serif" font-size="14.00">updated_at :datetime</text>
</g>
<!-- Rule -->
<g id="node3" class="node"><title>Rule</title>
<polyline fill="none" stroke="black" points="208,-190 328,-190 "/>
<path fill="none" stroke="black" d="M328,-190C334,-190 340,-196 340,-202"/>
<polyline fill="none" stroke="black" points="340,-202 340,-302 "/>
<path fill="none" stroke="black" d="M340,-302C340,-308 334,-314 328,-314"/>
<polyline fill="none" stroke="black" points="328,-314 208,-314 "/>
<path fill="none" stroke="black" d="M208,-314C202,-314 196,-308 196,-302"/>
<polyline fill="none" stroke="black" points="196,-302 196,-202 "/>
<path fill="none" stroke="black" d="M196,-202C196,-196 202,-190 208,-190"/>
<text text-anchor="middle" x="268" y="-297.4" font-family="Times Roman,serif" font-size="14.00">Rule</text>
<polyline fill="none" stroke="black" points="196,-288 340,-288 "/>
<text text-anchor="start" x="204" y="-271.4" font-family="Times Roman,serif" font-size="14.00">id :integer</text>
<text text-anchor="start" x="204" y="-253.4" font-family="Times Roman,serif" font-size="14.00">user_id :string</text>
<text text-anchor="start" x="204" y="-235.4" font-family="Times Roman,serif" font-size="14.00">peer_id :string</text>
<text text-anchor="start" x="204" y="-217.4" font-family="Times Roman,serif" font-size="14.00">delay :string</text>
<text text-anchor="start" x="204" y="-199.4" font-family="Times Roman,serif" font-size="14.00">question_id :string</text>
</g>
<!-- ValidUser -->
<g id="node4" class="node"><title>ValidUser</title>
<polyline fill="none" stroke="black" points="573.5,-190 716.5,-190 "/>
<path fill="none" stroke="black" d="M716.5,-190C722.5,-190 728.5,-196 728.5,-202"/>
<polyline fill="none" stroke="black" points="728.5,-202 728.5,-302 "/>
<path fill="none" stroke="black" d="M728.5,-302C728.5,-308 722.5,-314 716.5,-314"/>
<polyline fill="none" stroke="black" points="716.5,-314 573.5,-314 "/>
<path fill="none" stroke="black" d="M573.5,-314C567.5,-314 561.5,-308 561.5,-302"/>
<polyline fill="none" stroke="black" points="561.5,-302 561.5,-202 "/>
<path fill="none" stroke="black" d="M561.5,-202C561.5,-196 567.5,-190 573.5,-190"/>
<text text-anchor="middle" x="645" y="-297.4" font-family="Times Roman,serif" font-size="14.00">ValidUser</text>
<polyline fill="none" stroke="black" points="561.5,-288 728.5,-288 "/>
<text text-anchor="start" x="569.5" y="-271.4" font-family="Times Roman,serif" font-size="14.00">id :integer</text>
<text text-anchor="start" x="569.5" y="-253.4" font-family="Times Roman,serif" font-size="14.00">imei :string</text>
<text text-anchor="start" x="569.5" y="-235.4" font-family="Times Roman,serif" font-size="14.00">is_registered :boolean</text>
<text text-anchor="start" x="569.5" y="-217.4" font-family="Times Roman,serif" font-size="14.00">created_at :datetime</text>
<text text-anchor="start" x="569.5" y="-199.4" font-family="Times Roman,serif" font-size="14.00">updated_at :datetime</text>
</g>
<!-- User -->
<g id="node10" class="node"><title>User</title>
<polyline fill="none" stroke="black" points="862.5,-1 1003.5,-1 "/>
<path fill="none" stroke="black" d="M1003.5,-1C1009.5,-1 1015.5,-7 1015.5,-13"/>
<polyline fill="none" stroke="black" points="1015.5,-13 1015.5,-131 "/>
<path fill="none" stroke="black" d="M1015.5,-131C1015.5,-137 1009.5,-143 1003.5,-143"/>
<polyline fill="none" stroke="black" points="1003.5,-143 862.5,-143 "/>
<path fill="none" stroke="black" d="M862.5,-143C856.5,-143 850.5,-137 850.5,-131"/>
<polyline fill="none" stroke="black" points="850.5,-131 850.5,-13 "/>
<path fill="none" stroke="black" d="M850.5,-13C850.5,-7 856.5,-1 862.5,-1"/>
<text text-anchor="middle" x="933" y="-126.4" font-family="Times Roman,serif" font-size="14.00">User</text>
<polyline fill="none" stroke="black" points="850.5,-117 1015.5,-117 "/>
<text text-anchor="start" x="858.5" y="-100.4" font-family="Times Roman,serif" font-size="14.00">id :integer</text>
<text text-anchor="start" x="858.5" y="-82.4" font-family="Times Roman,serif" font-size="14.00">user_id :string</text>
<text text-anchor="start" x="858.5" y="-64.4" font-family="Times Roman,serif" font-size="14.00">valid_user_id :integer</text>
<text text-anchor="start" x="858.5" y="-46.4" font-family="Times Roman,serif" font-size="14.00">is_claimed :boolean</text>
<text text-anchor="start" x="858.5" y="-28.4" font-family="Times Roman,serif" font-size="14.00">created_at :datetime</text>
<text text-anchor="start" x="858.5" y="-10.4" font-family="Times Roman,serif" font-size="14.00">updated_at :datetime</text>
</g>
<!-- ValidUser&#45;&gt;User -->
<g id="edge6" class="edge"><title>ValidUser&#45;&gt;User</title>
<path fill="none" stroke="#ee656b" d="M729.405,-185.127C731.947,-183.376 734.483,-181.663 737,-180 770.592,-157.807 809.106,-135.884 843.051,-117.649"/>
<ellipse fill="none" stroke="#ee656b" cx="725.941" cy="-187.551" rx="4.00002" ry="4.00002"/>
<ellipse fill="#ee656b" stroke="#ee656b" cx="846.694" cy="-115.701" rx="4.00002" ry="4.00002"/>
</g>
<!-- Choice -->
<g id="node5" class="node"><title>Choice</title>
<polyline fill="none" stroke="black" points="359,-19 479,-19 "/>
<path fill="none" stroke="black" d="M479,-19C485,-19 491,-25 491,-31"/>
<polyline fill="none" stroke="black" points="491,-31 491,-113 "/>
<path fill="none" stroke="black" d="M491,-113C491,-119 485,-125 479,-125"/>
<polyline fill="none" stroke="black" points="479,-125 359,-125 "/>
<path fill="none" stroke="black" d="M359,-125C353,-125 347,-119 347,-113"/>
<polyline fill="none" stroke="black" points="347,-113 347,-31 "/>
<path fill="none" stroke="black" d="M347,-31C347,-25 353,-19 359,-19"/>
<text text-anchor="middle" x="419" y="-108.4" font-family="Times Roman,serif" font-size="14.00">Choice</text>
<polyline fill="none" stroke="black" points="347,-99 491,-99 "/>
<text text-anchor="start" x="355" y="-82.4" font-family="Times Roman,serif" font-size="14.00">id :integer</text>
<text text-anchor="start" x="355" y="-64.4" font-family="Times Roman,serif" font-size="14.00">question_id :string</text>
<text text-anchor="start" x="355" y="-46.4" font-family="Times Roman,serif" font-size="14.00">choice_id :string</text>
<text text-anchor="start" x="355" y="-28.4" font-family="Times Roman,serif" font-size="14.00">choice_text :string</text>
</g>
<!-- Question -->
<g id="node6" class="node"><title>Question</title>
<polyline fill="none" stroke="black" points="407.5,-217 532.5,-217 "/>
<path fill="none" stroke="black" d="M532.5,-217C538.5,-217 544.5,-223 544.5,-229"/>
<polyline fill="none" stroke="black" points="544.5,-229 544.5,-275 "/>
<path fill="none" stroke="black" d="M544.5,-275C544.5,-281 538.5,-287 532.5,-287"/>
<polyline fill="none" stroke="black" points="532.5,-287 407.5,-287 "/>
<path fill="none" stroke="black" d="M407.5,-287C401.5,-287 395.5,-281 395.5,-275"/>
<polyline fill="none" stroke="black" points="395.5,-275 395.5,-229 "/>
<path fill="none" stroke="black" d="M395.5,-229C395.5,-223 401.5,-217 407.5,-217"/>
<text text-anchor="middle" x="470" y="-270.4" font-family="Times Roman,serif" font-size="14.00">Question</text>
<polyline fill="none" stroke="black" points="395.5,-261 544.5,-261 "/>
<text text-anchor="start" x="403.5" y="-244.4" font-family="Times Roman,serif" font-size="14.00">id :integer</text>
<text text-anchor="start" x="403.5" y="-226.4" font-family="Times Roman,serif" font-size="14.00">question_text :text</text>
</g>
<!-- Question&#45;&gt;Choice -->
<g id="edge12" class="edge"><title>Question&#45;&gt;Choice</title>
<path fill="none" stroke="#7c7bc7" d="M457.804,-208.954C451.54,-186.847 443.788,-159.489 436.864,-135.051"/>
<ellipse fill="none" stroke="#7c7bc7" cx="458.955" cy="-213.018" rx="4.00001" ry="4.00001"/>
<polygon fill="#7c7bc7" stroke="#7c7bc7" points="436.782,-134.759 438.385,-123.911 435.419,-129.948 434.056,-125.138 434.056,-125.138 434.056,-125.138 435.419,-129.948 429.726,-126.364 436.782,-134.759 436.782,-134.759"/>
</g>
<!-- Schedule -->
<g id="node7" class="node"><title>Schedule</title>
<polyline fill="none" stroke="black" points="758,-190 878,-190 "/>
<path fill="none" stroke="black" d="M878,-190C884,-190 890,-196 890,-202"/>
<polyline fill="none" stroke="black" points="890,-202 890,-302 "/>
<path fill="none" stroke="black" d="M890,-302C890,-308 884,-314 878,-314"/>
<polyline fill="none" stroke="black" points="878,-314 758,-314 "/>
<path fill="none" stroke="black" d="M758,-314C752,-314 746,-308 746,-302"/>
<polyline fill="none" stroke="black" points="746,-302 746,-202 "/>
<path fill="none" stroke="black" d="M746,-202C746,-196 752,-190 758,-190"/>
<text text-anchor="middle" x="818" y="-297.4" font-family="Times Roman,serif" font-size="14.00">Schedule</text>
<polyline fill="none" stroke="black" points="746,-288 890,-288 "/>
<text text-anchor="start" x="754" y="-271.4" font-family="Times Roman,serif" font-size="14.00">id :integer</text>
<text text-anchor="start" x="754" y="-253.4" font-family="Times Roman,serif" font-size="14.00">time :string</text>
<text text-anchor="start" x="754" y="-235.4" font-family="Times Roman,serif" font-size="14.00">question_id :string</text>
<text text-anchor="start" x="754" y="-217.4" font-family="Times Roman,serif" font-size="14.00">user_id :string</text>
<text text-anchor="start" x="754" y="-199.4" font-family="Times Roman,serif" font-size="14.00">sent :boolean</text>
</g>
<!-- Interaction -->
<g id="node8" class="node"><title>Interaction</title>
<polyline fill="none" stroke="black" points="920,-181 1020,-181 "/>
<path fill="none" stroke="black" d="M1020,-181C1026,-181 1032,-187 1032,-193"/>
<polyline fill="none" stroke="black" points="1032,-193 1032,-311 "/>
<path fill="none" stroke="black" d="M1032,-311C1032,-317 1026,-323 1020,-323"/>
<polyline fill="none" stroke="black" points="1020,-323 920,-323 "/>
<path fill="none" stroke="black" d="M920,-323C914,-323 908,-317 908,-311"/>
<polyline fill="none" stroke="black" points="908,-311 908,-193 "/>
<path fill="none" stroke="black" d="M908,-193C908,-187 914,-181 920,-181"/>
<text text-anchor="middle" x="970" y="-306.4" font-family="Times Roman,serif" font-size="14.00">Interaction</text>
<polyline fill="none" stroke="black" points="908,-297 1032,-297 "/>
<text text-anchor="start" x="916" y="-280.4" font-family="Times Roman,serif" font-size="14.00">id :integer</text>
<text text-anchor="start" x="916" y="-262.4" font-family="Times Roman,serif" font-size="14.00">user_id :string</text>
<text text-anchor="start" x="916" y="-244.4" font-family="Times Roman,serif" font-size="14.00">peer_id :string</text>
<text text-anchor="start" x="916" y="-226.4" font-family="Times Roman,serif" font-size="14.00">time :string</text>
<text text-anchor="start" x="916" y="-208.4" font-family="Times Roman,serif" font-size="14.00">duration :string</text>
<text text-anchor="start" x="916" y="-190.4" font-family="Times Roman,serif" font-size="14.00">rssi :string</text>
</g>
<!-- Answer -->
<g id="node9" class="node"><title>Answer</title>
<polyline fill="none" stroke="black" points="1062,-190 1182,-190 "/>
<path fill="none" stroke="black" d="M1182,-190C1188,-190 1194,-196 1194,-202"/>
<polyline fill="none" stroke="black" points="1194,-202 1194,-302 "/>
<path fill="none" stroke="black" d="M1194,-302C1194,-308 1188,-314 1182,-314"/>
<polyline fill="none" stroke="black" points="1182,-314 1062,-314 "/>
<path fill="none" stroke="black" d="M1062,-314C1056,-314 1050,-308 1050,-302"/>
<polyline fill="none" stroke="black" points="1050,-302 1050,-202 "/>
<path fill="none" stroke="black" d="M1050,-202C1050,-196 1056,-190 1062,-190"/>
<text text-anchor="middle" x="1122" y="-297.4" font-family="Times Roman,serif" font-size="14.00">Answer</text>
<polyline fill="none" stroke="black" points="1050,-288 1194,-288 "/>
<text text-anchor="start" x="1058" y="-271.4" font-family="Times Roman,serif" font-size="14.00">id :integer</text>
<text text-anchor="start" x="1058" y="-253.4" font-family="Times Roman,serif" font-size="14.00">time :string</text>
<text text-anchor="start" x="1058" y="-235.4" font-family="Times Roman,serif" font-size="14.00">user_id :string</text>
<text text-anchor="start" x="1058" y="-217.4" font-family="Times Roman,serif" font-size="14.00">question_id :string</text>
<text text-anchor="start" x="1058" y="-199.4" font-family="Times Roman,serif" font-size="14.00">choice_id :string</text>
</g>
<!-- ActiveRecord::Base -->
<g id="node11" class="node"><title>ActiveRecord::Base</title>
<ellipse fill="none" stroke="black" cx="645" cy="-407" rx="104.151" ry="18.3848"/>
<text text-anchor="middle" x="645" y="-403.4" font-family="Times Roman,serif" font-size="14.00">ActiveRecord::Base</text>
</g>
<!-- ActiveRecord::Base&#45;&gt;Admin -->
<g id="edge2" class="edge"><title>ActiveRecord::Base&#45;&gt;Admin</title>
<path fill="none" stroke="black" d="M610.279,-389.467C588.375,-379.193 559.181,-366.913 532,-360 382.591,-321.998 330.8,-379.577 187,-324 179.911,-321.26 172.877,-317.867 166.024,-314.058"/>
</g>
<!-- ActiveRecord::Base&#45;&gt;Rule -->
<g id="edge4" class="edge"><title>ActiveRecord::Base&#45;&gt;Rule</title>
<path fill="none" stroke="black" d="M608.26,-389.581C586.478,-379.797 558.109,-367.987 532,-360 454.818,-336.39 426.738,-358.983 354,-324 348.034,-321.13 342.135,-317.753 336.392,-314.054"/>
</g>
<!-- ActiveRecord::Base&#45;&gt;ValidUser -->
<g id="edge8" class="edge"><title>ActiveRecord::Base&#45;&gt;ValidUser</title>
<path fill="none" stroke="black" d="M645,-388.303C645,-369.945 645,-340.908 645,-314.343"/>
</g>
<!-- ActiveRecord::Base&#45;&gt;Choice -->
<g id="edge10" class="edge"><title>ActiveRecord::Base&#45;&gt;Choice</title>
<path fill="none" stroke="black" d="M607.358,-389.666C585.635,-380.09 557.625,-368.457 532,-360 468.944,-339.191 427.906,-376.304 387,-324 342.715,-267.376 367.797,-180.695 391.866,-125.19"/>
</g>
<!-- ActiveRecord::Base&#45;&gt;Question -->
<g id="edge14" class="edge"><title>ActiveRecord::Base&#45;&gt;Question</title>
<path fill="none" stroke="black" d="M624.238,-388.611C596.081,-363.671 545.222,-318.625 509.63,-287.101"/>
</g>
<!-- ActiveRecord::Base&#45;&gt;Schedule -->
<g id="edge16" class="edge"><title>ActiveRecord::Base&#45;&gt;Schedule</title>
<path fill="none" stroke="black" d="M665.525,-388.611C686.021,-370.247 718.685,-340.982 748.532,-314.24"/>
</g>
<!-- ActiveRecord::Base&#45;&gt;Interaction -->
<g id="edge18" class="edge"><title>ActiveRecord::Base&#45;&gt;Interaction</title>
<path fill="none" stroke="black" d="M715.691,-393.425C768.926,-381.019 842.192,-359.152 899,-324 901.986,-322.153 904.938,-320.154 907.845,-318.04"/>
</g>
<!-- ActiveRecord::Base&#45;&gt;Answer -->
<g id="edge20" class="edge"><title>ActiveRecord::Base&#45;&gt;Answer</title>
<path fill="none" stroke="black" d="M742.812,-400.604C825.918,-391.953 946.428,-371.638 1041,-324 1046.71,-321.122 1052.34,-317.739 1057.8,-314.035"/>
</g>
<!-- ActiveRecord::Base&#45;&gt;User -->
<g id="edge22" class="edge"><title>ActiveRecord::Base&#45;&gt;User</title>
<path fill="none" stroke="black" d="M740.37,-399.539C891.794,-386.715 1173.24,-358.514 1203,-324 1244.79,-275.53 1238.88,-232.996 1203,-180 1161.39,-118.546 1078.54,-92.0572 1015.53,-80.6417"/>
</g>
</g>
</svg>
